<mxfile host="app.diagrams.net" modified="2024-02-17T07:32:29.805Z" agent="Mozilla/5.0 (Macintosh; Intel Mac OS X 10_15_7) AppleWebKit/537.36 (KHTML, like Gecko) Chrome/120.0.0.0 Safari/537.36" version="22.1.19" etag="EBAVgjQJAGI6KOqs0ISS" type="github">
  <diagram name="Page-1" id="1uAG7HmF8hjFflVeVHVx">
    <mxGraphModel>
      <root>
        <mxCell id="0" />
        <mxCell id="1" parent="0" />
      </root>
    </mxGraphModel>
  </diagram>
</mxfile>
